<?xml version="1.0" encoding="UTF-8" standalone="no"?>
<!-- Created with Inkscape (http://www.inkscape.org/) -->

<svg
   xmlns:dc="http://purl.org/dc/elements/1.1/"
   xmlns:cc="http://creativecommons.org/ns#"
   xmlns:rdf="http://www.w3.org/1999/02/22-rdf-syntax-ns#"
   xmlns:svg="http://www.w3.org/2000/svg"
   xmlns="http://www.w3.org/2000/svg"
   xmlns:sodipodi="http://sodipodi.sourceforge.net/DTD/sodipodi-0.dtd"
   xmlns:inkscape="http://www.inkscape.org/namespaces/inkscape"
   id="svg2"
   version="1.1"
   inkscape:version="0.91 r"
   xml:space="preserve"
   width="453.54376"
   height="340.1575"
   viewBox="0 0 453.54376 340.1575"
   sodipodi:docname="02.ProbEstat.2012.screen.svg"><metadata
     id="metadata8"><rdf:RDF><cc:Work
         rdf:about=""><dc:format>image/svg+xml</dc:format><dc:type
           rdf:resource="http://purl.org/dc/dcmitype/StillImage" /><dc:title></dc:title></cc:Work></rdf:RDF></metadata><defs
     id="defs6"><clipPath
       clipPathUnits="userSpaceOnUse"
       id="clipPath22"><path
         d="m 0,0 362.835,0 0,26.703 L 0,26.703 0,0 Z"
         id="path24"
         inkscape:connector-curvature="0" /></clipPath><linearGradient
       x1="0"
       y1="0"
       x2="0"
       y2="26.703671"
       gradientUnits="userSpaceOnUse"
       id="linearGradient26"
       gradientTransform="translate(0,245.423)"><stop
         style="stop-opacity:1;stop-color:#ffffff"
         offset="0"
         id="stop28" /><stop
         style="stop-opacity:1;stop-color:#ccccec"
         offset="2.60522"
         id="stop30" /><stop
         style="stop-opacity:1;stop-color:#ccccec"
         offset="8.46701"
         id="stop32" /><stop
         style="stop-opacity:1;stop-color:#c2c2e8"
         offset="11.07225"
         id="stop34" /><stop
         style="stop-opacity:1;stop-color:#c2c2e8"
         offset="16.93404"
         id="stop36" /><stop
         style="stop-opacity:1;stop-color:#b8b8e4"
         offset="19.53928"
         id="stop38" /><stop
         style="stop-opacity:1;stop-color:#b8b8e4"
         offset="26.70367"
         id="stop40" /></linearGradient><clipPath
       clipPathUnits="userSpaceOnUse"
       id="clipPath58"><path
         d="m 0,0 362.835,0 0,5.21 L 0,5.21 0,0 Z"
         id="path60"
         inkscape:connector-curvature="0" /></clipPath><linearGradient
       x1="0"
       y1="0"
       x2="0"
       y2="5.2104602"
       gradientUnits="userSpaceOnUse"
       id="linearGradient62"
       gradientTransform="translate(0,242.818)"><stop
         style="stop-opacity:1;stop-color:#d6d6f0"
         offset="0"
         id="stop64" /><stop
         style="stop-opacity:1;stop-color:#d6d6f0"
         offset="2.60522"
         id="stop66" /><stop
         style="stop-opacity:1;stop-color:#ccccec"
         offset="5.21046"
         id="stop68" /></linearGradient><clipPath
       clipPathUnits="userSpaceOnUse"
       id="clipPath86"><path
         d="m 0,0 362.835,0 0,2.605 L 0,2.605 0,0 Z"
         id="path88"
         inkscape:connector-curvature="0" /></clipPath><linearGradient
       x1="0"
       y1="0"
       x2="0"
       y2="2.6052201"
       gradientUnits="userSpaceOnUse"
       id="linearGradient90"
       gradientTransform="translate(0,228.564)"><stop
         style="stop-opacity:1;stop-color:#ffffff"
         offset="0"
         id="stop92" /><stop
         style="stop-opacity:1;stop-color:#d6d6f0"
         offset="1"
         id="stop94" /></linearGradient><clipPath
       clipPathUnits="userSpaceOnUse"
       id="clipPath116"><path
         d="m -4.00005,-1 314.14587,0 0,8.00009 -314.14587,0 0,-8.00009 z"
         id="path118"
         inkscape:connector-curvature="0" /></clipPath><clipPath
       clipPathUnits="userSpaceOnUse"
       id="clipPath130"><path
         d="m 0,0 5669.291,0 0,3.985 L 0,3.985 0,0 Z"
         id="path132"
         inkscape:connector-curvature="0" /></clipPath><linearGradient
       x1="0"
       y1="0"
       x2="0"
       y2="3.9851"
       gradientUnits="userSpaceOnUse"
       id="linearGradient134"
       gradientTransform="translate(-4,0)"><stop
         style="stop-opacity:1;stop-color:#e9e9f3"
         offset="0"
         id="stop136" /><stop
         style="stop-opacity:1;stop-color:#e9e9f3"
         offset="1.99255"
         id="stop138" /><stop
         style="stop-opacity:1;stop-color:#262686"
         offset="3.9851"
         id="stop140" /></linearGradient><clipPath
       clipPathUnits="userSpaceOnUse"
       id="clipPath160"><path
         d="M 0,0 8,0 8,8 0,8 0,0 Z"
         id="path162"
         inkscape:connector-curvature="0" /></clipPath><radialGradient
       fx="4.0000501"
       fy="4.0000501"
       cx="4.0000501"
       cy="4.0000501"
       r="4.0000501"
       gradientUnits="userSpaceOnUse"
       id="radialGradient164"><stop
         style="stop-opacity:1;stop-color:#808080"
         offset="0"
         id="stop166" /><stop
         style="stop-opacity:1;stop-color:#ffffff"
         offset="1"
         id="stop168" /></radialGradient><clipPath
       clipPathUnits="userSpaceOnUse"
       id="clipPath178"><path
         d="m 305.14578,-7.00008 9.00009,0 0,9.00009 -9.00009,0 0,-9.00009 z"
         id="path180"
         inkscape:connector-curvature="0" /></clipPath><clipPath
       clipPathUnits="userSpaceOnUse"
       id="clipPath192"><path
         d="M 0,0 16,0 16,16 0,16 0,0 Z"
         id="path194"
         inkscape:connector-curvature="0" /></clipPath><radialGradient
       fx="8.0000896"
       fy="8.0000896"
       cx="8.0000896"
       cy="8.0000896"
       r="8.0000896"
       gradientUnits="userSpaceOnUse"
       id="radialGradient196"><stop
         style="stop-opacity:1;stop-color:#808080"
         offset="0"
         id="stop198" /><stop
         style="stop-opacity:1;stop-color:#808080"
         offset="4.00005"
         id="stop200" /><stop
         style="stop-opacity:1;stop-color:#ffffff"
         offset="8.00009"
         id="stop202" /></radialGradient><clipPath
       clipPathUnits="userSpaceOnUse"
       id="clipPath212"><path
         d="m 4.00005,-7.00008 302.14572,0 0,5.00005 -302.14572,0 0,-5.00005 z"
         id="path214"
         inkscape:connector-curvature="0" /></clipPath><clipPath
       clipPathUnits="userSpaceOnUse"
       id="clipPath226"><path
         d="m 0,0 5669.291,0 0,8 L 0,8 0,0 Z"
         id="path228"
         inkscape:connector-curvature="0" /></clipPath><linearGradient
       x1="0"
       y1="0"
       x2="0"
       y2="8.0000896"
       gradientUnits="userSpaceOnUse"
       id="linearGradient230"><stop
         style="stop-opacity:1;stop-color:#ffffff"
         offset="0"
         id="stop232" /><stop
         style="stop-opacity:1;stop-color:#808080"
         offset="4.00005"
         id="stop234" /><stop
         style="stop-opacity:1;stop-color:#808080"
         offset="8.00009"
         id="stop236" /></linearGradient><clipPath
       clipPathUnits="userSpaceOnUse"
       id="clipPath246"><path
         d="m 310.14583,1 4.00005,0 0,162.23277 -4.00005,0 0,-162.23277 z"
         id="path248"
         inkscape:connector-curvature="0" /></clipPath><clipPath
       clipPathUnits="userSpaceOnUse"
       id="clipPath260"><path
         d="M 0,0 8,0 8,8 0,8 0,0 Z"
         id="path262"
         inkscape:connector-curvature="0" /></clipPath><radialGradient
       fx="4.0000501"
       fy="4.0000501"
       cx="4.0000501"
       cy="4.0000501"
       r="4.0000501"
       gradientUnits="userSpaceOnUse"
       id="radialGradient264"
       gradientTransform="translate(306.142,154.231)"><stop
         style="stop-opacity:1;stop-color:#808080"
         offset="0"
         id="stop266" /><stop
         style="stop-opacity:1;stop-color:#ffffff"
         offset="1"
         id="stop268" /></radialGradient><clipPath
       clipPathUnits="userSpaceOnUse"
       id="clipPath276"><path
         d="m 310.14583,1 4.00005,0 0,157.23271 -4.00005,0 0,-157.23271 z"
         id="path278"
         inkscape:connector-curvature="0" /></clipPath><clipPath
       clipPathUnits="userSpaceOnUse"
       id="clipPath290"><path
         d="m 0,0 5669.291,0 0,8 L 0,8 0,0 Z"
         id="path292"
         inkscape:connector-curvature="0" /></clipPath><linearGradient
       x1="0"
       y1="0"
       x2="0"
       y2="8.0000896"
       gradientUnits="userSpaceOnUse"
       id="linearGradient294"
       gradientTransform="matrix(0,1,-1,0,314.142,-3)"><stop
         style="stop-opacity:1;stop-color:#ffffff"
         offset="0"
         id="stop296" /><stop
         style="stop-opacity:1;stop-color:#808080"
         offset="4.00005"
         id="stop298" /><stop
         style="stop-opacity:1;stop-color:#808080"
         offset="8.00009"
         id="stop300" /></linearGradient><clipPath
       clipPathUnits="userSpaceOnUse"
       id="clipPath344"><path
         d="M 0,0 842,0 842,595 0,595 0,0 Z"
         id="path346"
         inkscape:connector-curvature="0" /></clipPath><clipPath
       clipPathUnits="userSpaceOnUse"
       id="clipPath348"><path
         d="m 0,-0.3 842,0 L 842,595 0,595 0,-0.3 Z"
         id="path350"
         inkscape:connector-curvature="0"
         style="clip-rule:evenodd" /></clipPath><clipPath
       clipPathUnits="userSpaceOnUse"
       id="clipPath766"><path
         d="m -4.00005,-1 314.14587,0 0,8.00009 -314.14587,0 0,-8.00009 z"
         id="path768"
         inkscape:connector-curvature="0" /></clipPath><clipPath
       clipPathUnits="userSpaceOnUse"
       id="clipPath780"><path
         d="m 0,0 5669.291,0 0,3.985 L 0,3.985 0,0 Z"
         id="path782"
         inkscape:connector-curvature="0" /></clipPath><linearGradient
       x1="0"
       y1="0"
       x2="0"
       y2="3.9851"
       gradientUnits="userSpaceOnUse"
       id="linearGradient784"
       gradientTransform="translate(24.34604,36.16804)"><stop
         style="stop-opacity:1;stop-color:#e9e9f3"
         offset="0"
         id="stop786" /><stop
         style="stop-opacity:1;stop-color:#e9e9f3"
         offset="1.99255"
         id="stop788" /><stop
         style="stop-opacity:1;stop-color:#262686"
         offset="3.9851"
         id="stop790" /></linearGradient><clipPath
       clipPathUnits="userSpaceOnUse"
       id="clipPath810"><path
         d="M 0,0 8,0 8,8 0,8 0,0 Z"
         id="path812"
         inkscape:connector-curvature="0" /></clipPath><radialGradient
       fx="4.0000501"
       fy="4.0000501"
       cx="4.0000501"
       cy="4.0000501"
       r="4.0000501"
       gradientUnits="userSpaceOnUse"
       id="radialGradient814"
       gradientTransform="translate(28.34604,2.16404)"><stop
         style="stop-opacity:1;stop-color:#808080"
         offset="0"
         id="stop816" /><stop
         style="stop-opacity:1;stop-color:#ffffff"
         offset="1"
         id="stop818" /></radialGradient><clipPath
       clipPathUnits="userSpaceOnUse"
       id="clipPath828"><path
         d="m 305.14578,-7.00008 9.00009,0 0,9.00009 -9.00009,0 0,-9.00009 z"
         id="path830"
         inkscape:connector-curvature="0" /></clipPath><clipPath
       clipPathUnits="userSpaceOnUse"
       id="clipPath842"><path
         d="M 0,0 16,0 16,16 0,16 0,0 Z"
         id="path844"
         inkscape:connector-curvature="0" /></clipPath><radialGradient
       fx="8.0000896"
       fy="8.0000896"
       cx="8.0000896"
       cy="8.0000896"
       r="8.0000896"
       gradientUnits="userSpaceOnUse"
       id="radialGradient846"
       gradientTransform="translate(326.48804,2.16404)"><stop
         style="stop-opacity:1;stop-color:#808080"
         offset="0"
         id="stop848" /><stop
         style="stop-opacity:1;stop-color:#808080"
         offset="4.00005"
         id="stop850" /><stop
         style="stop-opacity:1;stop-color:#ffffff"
         offset="8.00009"
         id="stop852" /></radialGradient><clipPath
       clipPathUnits="userSpaceOnUse"
       id="clipPath862"><path
         d="m 4.00005,-7.00008 302.14572,0 0,5.00005 -302.14572,0 0,-5.00005 z"
         id="path864"
         inkscape:connector-curvature="0" /></clipPath><clipPath
       clipPathUnits="userSpaceOnUse"
       id="clipPath876"><path
         d="m 0,0 5669.291,0 0,8 L 0,8 0,0 Z"
         id="path878"
         inkscape:connector-curvature="0" /></clipPath><linearGradient
       x1="0"
       y1="0"
       x2="0"
       y2="8.0000896"
       gradientUnits="userSpaceOnUse"
       id="linearGradient880"
       gradientTransform="translate(32.34604,2.16404)"><stop
         style="stop-opacity:1;stop-color:#ffffff"
         offset="0"
         id="stop882" /><stop
         style="stop-opacity:1;stop-color:#808080"
         offset="4.00005"
         id="stop884" /><stop
         style="stop-opacity:1;stop-color:#808080"
         offset="8.00009"
         id="stop886" /></linearGradient><clipPath
       clipPathUnits="userSpaceOnUse"
       id="clipPath896"><path
         d="m 310.14583,1 4.00005,0 0,39.38512 -4.00005,0 0,-39.38512 z"
         id="path898"
         inkscape:connector-curvature="0" /></clipPath><clipPath
       clipPathUnits="userSpaceOnUse"
       id="clipPath910"><path
         d="M 0,0 8,0 8,8 0,8 0,0 Z"
         id="path912"
         inkscape:connector-curvature="0" /></clipPath><radialGradient
       fx="4.0000501"
       fy="4.0000501"
       cx="4.0000501"
       cy="4.0000501"
       r="4.0000501"
       gradientUnits="userSpaceOnUse"
       id="radialGradient914"
       gradientTransform="translate(334.48804,40.54904)"><stop
         style="stop-opacity:1;stop-color:#808080"
         offset="0"
         id="stop916" /><stop
         style="stop-opacity:1;stop-color:#ffffff"
         offset="1"
         id="stop918" /></radialGradient><clipPath
       clipPathUnits="userSpaceOnUse"
       id="clipPath926"><path
         d="m 310.14583,1 4.00005,0 0,34.38506 -4.00005,0 0,-34.38506 z"
         id="path928"
         inkscape:connector-curvature="0" /></clipPath><clipPath
       clipPathUnits="userSpaceOnUse"
       id="clipPath940"><path
         d="m 0,0 5669.291,0 0,8 L 0,8 0,0 Z"
         id="path942"
         inkscape:connector-curvature="0" /></clipPath><linearGradient
       x1="0"
       y1="0"
       x2="0"
       y2="8.0000896"
       gradientUnits="userSpaceOnUse"
       id="linearGradient944"
       gradientTransform="matrix(0,1,-1,0,342.48804,6.16404)"><stop
         style="stop-opacity:1;stop-color:#ffffff"
         offset="0"
         id="stop946" /><stop
         style="stop-opacity:1;stop-color:#808080"
         offset="4.00005"
         id="stop948" /><stop
         style="stop-opacity:1;stop-color:#808080"
         offset="8.00009"
         id="stop950" /></linearGradient></defs><sodipodi:namedview
     pagecolor="#ffffff"
     bordercolor="#666666"
     borderopacity="1"
     objecttolerance="10"
     gridtolerance="10"
     guidetolerance="10"
     inkscape:pageopacity="0"
     inkscape:pageshadow="2"
     inkscape:window-width="1301"
     inkscape:window-height="744"
     id="namedview4"
     showgrid="false"
     inkscape:zoom="1.3875925"
     inkscape:cx="236.45406"
     inkscape:cy="156.0133"
     inkscape:window-x="65"
     inkscape:window-y="24"
     inkscape:window-maximized="1"
     inkscape:current-layer="g104" /><g
     id="g10"
     inkscape:groupmode="layer"
     inkscape:label="02.ProbEstat.2012.screen"
     transform="matrix(1.25,0,0,-1.25,0,340.1575)"><g
       id="g98"
       transform="translate(28.34601,222.03001)"><g
         id="g104"
         transform="translate(-26.616386,-218.57077)"><g
           id="g110"
           transform="translate(28.346,208.665)"
           inkscape:export-xdpi="643.61871"
           inkscape:export-ydpi="643.61871"><g
             id="g146"
             transform="translate(0,-149.349)"><g
               id="g318"
               transform="translate(-28.346,-59.316)"><path
                 d="m 137.36528,198.93918 c -6.5298,0 -13.05961,-6.52981 -13.05961,-13.05961 l 0,-52.22392 c 0,-6.5298 6.52981,-13.05961 13.05961,-13.05961 l 88.08695,0 c 6.52981,0 13.05962,6.52981 13.05962,13.05961 l 0,52.22392 c 0,6.5298 -6.52981,13.05961 -13.05962,13.05961 l -88.08695,0 z"
                 style="fill:none;stroke:#000000;stroke-width:0.41156688;stroke-linecap:butt;stroke-linejoin:round;stroke-miterlimit:10;stroke-dasharray:none;stroke-opacity:1"
                 id="path362"
                 inkscape:connector-curvature="0" /><path
                 inkscape:connector-curvature="0"
                 id="path364"
                 style="fill:#cccccc;fill-opacity:1;fill-rule:evenodd;stroke:none"
                 d="m 188.68753,185.48691 c 13.51045,-6.77704 19.50216,-20.56381 13.84494,-31.83463 -5.64269,-11.28537 -20.27295,-14.73206 -33.78339,-7.96957 -13.51045,6.77704 -19.50217,20.56381 -13.85948,31.84917 5.65722,11.27083 20.28748,14.71752 33.79793,7.95503 z" /><path
                 d="m 188.68753,185.48691 c 13.51045,-6.77704 19.50216,-20.56381 13.84494,-31.83463 -5.64269,-11.28537 -20.27295,-14.73206 -33.78339,-7.96957 -13.51045,6.77704 -19.50217,20.56381 -13.85948,31.84917 5.65722,11.27083 20.28748,14.71752 33.79793,7.95503 z"
                 style="fill:none;stroke:#000000;stroke-width:0.41156688;stroke-linecap:butt;stroke-linejoin:round;stroke-miterlimit:10;stroke-dasharray:none;stroke-opacity:1"
                 id="path368"
                 inkscape:connector-curvature="0" /><text
                 transform="scale(1,-1)"
                 style="font-variant:normal;font-weight:bold;font-size:6.98063993px;font-family:Arial;-inkscape-font-specification:Arial-BoldMT;writing-mode:lr-tb;fill:#ff0000;fill-opacity:1;fill-rule:nonzero;stroke:none"
                 id="text372"
                 x="224.12881"
                 y="-189.64619"><tspan
                   x="224.12881"
                   y="-189.64619"
                   id="tspan374">S</tspan></text>
<text
                 transform="scale(1,-1)"
                 style="font-variant:normal;font-weight:bold;font-size:6.39892006px;font-family:Arial;-inkscape-font-specification:Arial-BoldMT;writing-mode:lr-tb;fill:#ff0000;fill-opacity:1;fill-rule:nonzero;stroke:none"
                 id="text378"
                 x="167.1348"
                 y="-169.21329"><tspan
                   x="167.1348"
                   y="-169.21329"
                   id="tspan380">A</tspan></text>
<text
                 transform="scale(1,-1)"
                 style="font-variant:normal;font-weight:bold;font-size:4.65375996px;font-family:Arial;-inkscape-font-specification:Arial-BoldMT;writing-mode:lr-tb;fill:#ff0000;fill-opacity:1;fill-rule:nonzero;stroke:none"
                 id="text384"
                 x="212.45079"
                 y="-131.93958"><tspan
                   x="212.45079"
                   y="-131.93958"
                   id="tspan386">B</tspan></text>
<text
                 transform="scale(1,-1)"
                 style="font-variant:normal;font-weight:bold;font-size:2.69045496px;font-family:Arial;-inkscape-font-specification:Arial-BoldMT;writing-mode:lr-tb;fill:#ff0000;fill-opacity:1;fill-rule:nonzero;stroke:none"
                 id="text390"
                 x="215.79568"
                 y="-129.99081"><tspan
                   x="215.79568"
                   y="-129.99081"
                   id="tspan392">5</tspan></text>
<path
                 d="m 124.4511,167.43904 c 1.77425,0.50901 3.63575,0.53809 5.27911,1.70153 1.67244,1.19253 3.40306,2.28325 5.11913,3.40307 1.97785,1.30887 4.01387,2.55956 5.96263,3.92661 1.91968,1.35249 4.08659,2.45776 5.45363,4.42107 1.23615,1.78879 3.18492,3.02494 3.91207,5.11913 0.65443,1.84696 0.74169,3.91207 1.71607,5.62814 0.97438,1.70154 1.83242,3.46124 2.55957,5.27911 l 1.70153,1.36705 0.33449,0.68352"
                 style="fill:none;stroke:#000000;stroke-width:0.80000001;stroke-linecap:butt;stroke-linejoin:round;stroke-miterlimit:10;stroke-dasharray:none;stroke-opacity:1"
                 id="path396"
                 inkscape:connector-curvature="0" /><path
                 d="m 148.34525,183.32 c 0.90166,-0.45083 1.73061,-1.41067 2.50139,-2.02148 0.6399,-0.49446 1.3525,-0.97438 2.12328,-1.2507 0.74169,-0.27631 1.48339,-0.52354 2.26871,-0.66897 0.69806,-0.13089 1.33796,-0.5381 2.06511,-0.5381 0.74169,0 1.4543,-0.14543 2.19599,-0.26177 0.71261,-0.11634 1.41067,-0.15997 2.12328,-0.46538 0.65443,-0.29086 1.41067,-0.23268 2.12327,-0.26177 0.71261,-0.0291 1.42522,-0.0582 2.13783,0.0582 0.72715,0.13089 1.4543,0.0582 2.18145,0.0727 0.69806,0 1.38158,-0.0146 2.0651,-0.0727 0.74169,-0.0582 1.46884,-0.23269 2.196,-0.33449 0.68352,-0.0873 1.38158,-0.11634 2.0651,-0.18906 0.66898,-0.0727 1.32341,0.0873 1.99239,0.0582 0.79987,-0.0291 1.62882,-0.14543 2.3996,0.0727 0.8144,0.21815 1.41067,0.91621 2.0651,1.4543 0.62535,0.53809 1.22161,1.13436 1.99239,1.46884 0.72715,0.30541 1.46885,0.61081 2.196,0.93076 0.84349,0.37811 1.59973,0.94529 2.32688,1.52701 0.68352,0.55264 1.61427,0.82895 2.12327,1.59973 0.42175,0.62535 0.77078,1.36704 0.79987,2.12328 0.0291,0.66898 0.0582,1.3525 -0.0727,2.00693 -0.14543,0.75624 0.29086,1.4543 0.66898,2.05057 0.43629,0.7126 1.00347,1.30887 1.46885,2.00693 0.43629,0.63989 0.90166,1.29433 1.26524,1.99239 0.31994,0.61081 0.49446,1.29433 0.52355,1.99239 0.0291,0.69807 -0.40721,1.29433 -0.33449,1.99239 l 0,0.20361"
                 style="fill:none;stroke:#000000;stroke-width:0.80000001;stroke-linecap:butt;stroke-linejoin:round;stroke-miterlimit:10;stroke-dasharray:none;stroke-opacity:1"
                 id="path400"
                 inkscape:connector-curvature="0" /><path
                 d="m 127.59239,125.91878 c 1.59973,0.46537 2.61774,1.77424 4.01386,2.60319 1.59973,0.93076 2.76317,2.42869 4.1593,3.63575 1.38159,1.17799 2.58866,2.55957 4.1593,3.50487 1.42521,0.85803 2.86497,1.71607 4.29019,2.60319 1.41067,0.85804 3.03948,1.26525 4.53741,1.94877 1.33796,0.59626 2.82134,0.79986 4.1593,1.42521 1.42521,0.66898 2.705,1.62882 3.76664,2.85043 1.17798,1.36704 2.60319,2.50139 3.76663,3.89752 1.06164,1.29433 1.70153,2.85043 2.71954,4.1593 1.01801,1.30887 1.73062,2.77771 2.86498,4.02841 1.25069,1.38159 2.70499,2.58866 3.76663,4.14476 0.88713,1.30887 1.32342,2.92314 2.45777,4.02841 1.2507,1.22161 2.23962,2.66137 3.1122,4.1593 0.75624,1.26524 0.93075,2.69045 1.43976,4.01386 0.49446,1.32342 0.63989,2.76317 1.29433,4.02842 l 0.39266,0.52354"
                 style="fill:none;stroke:#000000;stroke-width:0.80000001;stroke-linecap:butt;stroke-linejoin:round;stroke-miterlimit:10;stroke-dasharray:none;stroke-opacity:1"
                 id="path404"
                 inkscape:connector-curvature="0" /><path
                 d="m 238.22099,136.05525 c -1.57065,-0.81441 -3.05403,0.42175 -4.66831,0.26177 -1.36704,-0.14543 -2.66136,0.63989 -4.02841,0.50901 -1.61427,-0.14543 -2.70499,1.11981 -4.15929,1.43975 -1.59973,0.34904 -2.85043,1.42522 -4.40653,1.94877 -1.65791,0.55263 -3.28672,1.19252 -4.94462,1.68698 -1.48339,0.45084 -3.02495,0.17452 -4.53742,0.26178 -1.58519,0.0873 -3.15583,0.45083 -4.6683,0.90166 -1.77425,0.5381 -3.60667,0.8435 -5.33728,1.55611 -1.29433,0.53809 -2.66137,0.9162 -4.01387,1.29432 -1.61427,0.45084 -2.51594,1.74516 -4.02841,2.34143 -1.38159,0.55263 -2.705,1.26524 -4.1593,1.43975 -1.46884,0.15998 -2.96677,0.13089 -4.40653,0.37812 -1.39613,0.24723 -2.76317,0.49446 -4.1593,0.65444 -1.5561,0.17451 -3.28089,1.29302 -4.54613,1.962 -1.27979,0.68352 -2.61774,1.1489 -3.89753,1.81788 -1.17798,0.62535 -2.51593,1.07618 -3.89752,1.03255 l -1.29433,0.65443 -0.91621,0.39266"
                 style="fill:none;stroke:#000000;stroke-width:0.80000001;stroke-linecap:butt;stroke-linejoin:round;stroke-miterlimit:10;stroke-dasharray:none;stroke-opacity:1"
                 id="path408"
                 inkscape:connector-curvature="0"
                 sodipodi:nodetypes="ccccccccccccccccccc" /><path
                 d="m 199.78384,120.72693 c -0.66898,1.41067 -1.26524,2.85042 -1.81788,4.29018 -0.52354,1.41067 -1.58518,2.51594 -1.94876,4.02841 -0.34903,1.4543 -1.22161,2.73409 -1.42521,4.27564 -0.18906,1.42522 -0.95984,2.71955 -1.03256,4.1593 -0.0872,1.38159 -0.3054,2.76317 -0.26177,4.1593 0.0436,1.36704 -0.33449,2.705 -0.65443,4.02841 -0.34904,1.46884 -1.09073,2.85043 -2.07965,4.02841 l 0.13088,0.11635"
                 style="fill:none;stroke:#000000;stroke-width:0.80000001;stroke-linecap:butt;stroke-linejoin:round;stroke-miterlimit:10;stroke-dasharray:none;stroke-opacity:1"
                 id="path412"
                 inkscape:connector-curvature="0" /><path
                 d="m 176.15146,169.16966 c 1.64336,0.81441 3.46124,0.37812 5.19185,0.39266 2.06511,0.0145 4.07204,0.34903 6.10806,0.24723 1.48339,-0.0582 2.95223,0.2036 4.42108,-0.63989 1.26524,-0.74169 2.87951,-0.31995 4.27564,-0.65444 1.46884,-0.34903 2.95223,-0.14543 4.42107,-0.26177 1.36704,-0.1018 2.57411,0.55263 3.89752,0.78532 1.51248,0.26178 3.02495,0.36358 4.53742,0.63989 1.38159,0.26178 2.76317,-0.29086 4.1593,-0.26177 1.39613,0.0436 2.76317,-0.0291 4.1593,-0.11634 1.42521,-0.1018 2.83588,-0.52355 4.27564,-0.52355 1.46884,0 3.08311,-0.46538 4.42107,0.26177 1.32341,0.72715 2.77771,0.66898 4.1593,1.03256 1.32341,0.36357 2.61774,0.56717 3.88298,1.17798 1.23615,0.58172 2.66137,0.68352 3.89752,1.29433 l 0.39266,-0.78533"
                 style="fill:none;stroke:#000000;stroke-width:0.80000001;stroke-linecap:butt;stroke-linejoin:round;stroke-miterlimit:10;stroke-dasharray:none;stroke-opacity:1"
                 id="path416"
                 inkscape:connector-curvature="0" /><text
                 transform="scale(1,-1)"
                 style="font-variant:normal;font-weight:bold;font-size:4.65375996px;font-family:Arial;-inkscape-font-specification:Arial-BoldMT;writing-mode:lr-tb;fill:#ff0000;fill-opacity:1;fill-rule:nonzero;stroke:none"
                 id="text420"
                 x="167.92014"
                 y="-193.22379"><tspan
                   x="167.92014"
                   y="-193.22379"
                   id="tspan422">B</tspan></text>
<text
                 transform="scale(1,-1)"
                 style="font-variant:normal;font-weight:bold;font-size:2.69045496px;font-family:Arial;-inkscape-font-specification:Arial-BoldMT;writing-mode:lr-tb;fill:#ff0000;fill-opacity:1;fill-rule:nonzero;stroke:none"
                 id="text426"
                 x="171.26501"
                 y="-191.27502"><tspan
                   x="171.26501"
                   y="-191.27502"
                   id="tspan428">2</tspan></text>
<text
                 transform="scale(1,-1)"
                 style="font-variant:normal;font-weight:bold;font-size:4.65375996px;font-family:Arial;-inkscape-font-specification:Arial-BoldMT;writing-mode:lr-tb;fill:#ff0000;fill-opacity:1;fill-rule:nonzero;stroke:none"
                 id="text432"
                 x="134.15128"
                 y="-183.34908"><tspan
                   x="134.15128"
                   y="-183.34908"
                   id="tspan434">B</tspan></text>
<text
                 transform="scale(1,-1)"
                 style="font-variant:normal;font-weight:bold;font-size:2.69045496px;font-family:Arial;-inkscape-font-specification:Arial-BoldMT;writing-mode:lr-tb;fill:#ff0000;fill-opacity:1;fill-rule:nonzero;stroke:none"
                 id="text438"
                 x="137.51071"
                 y="-181.40031"><tspan
                   x="137.51071"
                   y="-181.40031"
                   id="tspan440">1</tspan></text>
<text
                 transform="scale(1,-1)"
                 style="font-variant:normal;font-weight:bold;font-size:4.65375996px;font-family:Arial;-inkscape-font-specification:Arial-BoldMT;writing-mode:lr-tb;fill:#ff0000;fill-opacity:1;fill-rule:nonzero;stroke:none"
                 id="text444"
                 x="137.52525"
                 y="-153.73953"><tspan
                   x="137.52525"
                   y="-153.73953"
                   id="tspan446">B</tspan></text>
<text
                 transform="scale(1,-1)"
                 style="font-variant:normal;font-weight:bold;font-size:2.69045496px;font-family:Arial;-inkscape-font-specification:Arial-BoldMT;writing-mode:lr-tb;fill:#ff0000;fill-opacity:1;fill-rule:nonzero;stroke:none"
                 id="text450"
                 x="140.87015"
                 y="-151.79077"><tspan
                   x="140.87015"
                   y="-151.79077"
                   id="tspan452">7</tspan></text>
<text
                 transform="scale(1,-1)"
                 style="font-variant:normal;font-weight:bold;font-size:4.65375996px;font-family:Arial;-inkscape-font-specification:Arial-BoldMT;writing-mode:lr-tb;fill:#ff0000;fill-opacity:1;fill-rule:nonzero;stroke:none"
                 id="text456"
                 x="173.88277"
                 y="-131.79414"><tspan
                   x="173.88277"
                   y="-131.79414"
                   id="tspan458">B</tspan></text>
<text
                 transform="scale(1,-1)"
                 style="font-variant:normal;font-weight:bold;font-size:2.69045496px;font-family:Arial;-inkscape-font-specification:Arial-BoldMT;writing-mode:lr-tb;fill:#ff0000;fill-opacity:1;fill-rule:nonzero;stroke:none"
                 id="text462"
                 x="177.24219"
                 y="-129.84538"><tspan
                   x="177.24219"
                   y="-129.84538"
                   id="tspan464">6</tspan></text>
<text
                 transform="scale(1,-1)"
                 style="font-variant:normal;font-weight:bold;font-size:4.65375996px;font-family:Arial;-inkscape-font-specification:Arial-BoldMT;writing-mode:lr-tb;fill:#ff0000;fill-opacity:1;fill-rule:nonzero;stroke:none"
                 id="text468"
                 x="210.24026"
                 y="-176.99379"><tspan
                   x="210.24026"
                   y="-176.99379"
                   id="tspan470">B</tspan></text>
<text
                 transform="scale(1,-1)"
                 style="font-variant:normal;font-weight:bold;font-size:2.69045496px;font-family:Arial;-inkscape-font-specification:Arial-BoldMT;writing-mode:lr-tb;fill:#ff0000;fill-opacity:1;fill-rule:nonzero;stroke:none"
                 id="text474"
                 x="213.58514"
                 y="-175.04503"><tspan
                   x="213.58514"
                   y="-175.04503"
                   id="tspan476">3</tspan></text>
<text
                 transform="scale(1,-1)"
                 style="font-variant:normal;font-weight:bold;font-size:4.65375996px;font-family:Arial;-inkscape-font-specification:Arial-BoldMT;writing-mode:lr-tb;fill:#ff0000;fill-opacity:1;fill-rule:nonzero;stroke:none"
                 id="text480"
                 x="213.61423"
                 y="-153.23053"><tspan
                   x="213.61423"
                   y="-153.23053"
                   id="tspan482">B</tspan></text>
<text
                 transform="scale(1,-1)"
                 style="font-variant:normal;font-weight:bold;font-size:2.69045496px;font-family:Arial;-inkscape-font-specification:Arial-BoldMT;writing-mode:lr-tb;fill:#ff0000;fill-opacity:1;fill-rule:nonzero;stroke:none"
                 id="text486"
                 x="216.95912"
                 y="-151.28177"><tspan
                   x="216.95912"
                   y="-151.28177"
                   id="tspan488">4</tspan></text>
</g></g></g></g></g></g></svg>